<svg aria-hidden="true" style="position: absolute; width: 0; height: 0; overflow: hidden;" version="1.1" xmlns="http://www.w3.org/2000/svg" xmlns:xlink="http://www.w3.org/1999/xlink">
<defs>
<symbol id="icon-arrow-down" viewBox="0 0 32 32">
<path fill="#4440f6" style="fill: var(--color1, #4440f6)" d="M3.76 9.143l-3.76 3.479 16 14.806 16-14.806-3.76-3.479-12.24 11.302-12.24-11.302z"></path>
</symbol>
<symbol id="icon-arrow-up" viewBox="0 0 32 32">
<path fill="#4440f6" style="fill: var(--color1, #4440f6)" d="M3.76 25.143l-3.76-3.479 16-14.806 16 14.806-3.76 3.479-12.24-11.302-12.24 11.302z"></path>
</symbol>
<symbol id="icon-calendar" viewBox="0 0 32 32">
<path fill="#4440f7" style="fill: var(--color2, #4440f7)" d="M22.667 4h5.333c0.354 0 0.693 0.14 0.943 0.391s0.391 0.589 0.391 0.943v21.333c0 0.354-0.14 0.693-0.391 0.943s-0.589 0.391-0.943 0.391h-24c-0.354 0-0.693-0.14-0.943-0.391s-0.39-0.589-0.39-0.943v-21.333c0-0.354 0.14-0.693 0.39-0.943s0.589-0.391 0.943-0.391h5.333v-2.667h2.667v2.667h8v-2.667h2.667v2.667zM26.667 14.667h-21.333v10.667h21.333v-10.667zM20 6.667h-8v2.667h-2.667v-2.667h-4v5.333h21.333v-5.333h-4v2.667h-2.667v-2.667zM8 17.333h2.667v2.667h-2.667v-2.667zM14.667 17.333h2.667v2.667h-2.667v-2.667zM21.333 17.333h2.667v2.667h-2.667v-2.667z"></path>
</symbol>
<symbol id="icon-heart-in-circle" viewBox="0 0 32 32">
<path fill="#4440f6" style="fill: var(--color1, #4440f6)" d="M32 16c0 8.837-7.163 16-16 16s-16-7.163-16-16c0-8.837 7.163-16 16-16s16 7.163 16 16z"></path>
<path fill="none" stroke="#f4f4f4" style="stroke: var(--color3, #f4f4f4)" stroke-linejoin="round" stroke-linecap="round" stroke-miterlimit="4" stroke-width="1" d="M22.63 10.457c-0.383-0.383-0.838-0.687-1.338-0.895s-1.037-0.314-1.579-0.314c-0.542 0-1.078 0.107-1.579 0.314s-0.955 0.511-1.338 0.895l-0.795 0.795-0.795-0.795c-0.774-0.774-1.823-1.208-2.918-1.208s-2.144 0.435-2.918 1.208c-0.774 0.774-1.208 1.823-1.208 2.918s0.435 2.144 1.208 2.917l6.63 6.63 6.63-6.63c0.383-0.383 0.687-0.838 0.895-1.338s0.314-1.037 0.314-1.579c0-0.542-0.107-1.078-0.314-1.579s-0.512-0.955-0.895-1.338v0z"></path>
</symbol>
<symbol id="icon-heart" viewBox="0 0 37 32">
<path fill="none" stroke="#4440f7" style="stroke: var(--color2, #4440f7)" stroke-linejoin="round" stroke-linecap="round" stroke-miterlimit="4" stroke-width="2.2857" d="M10.666 2.286c-4.207 0-7.619 3.377-7.619 7.543 0 3.363 1.333 11.345 14.458 19.413 0.235 0.143 0.505 0.219 0.78 0.219s0.545-0.076 0.78-0.219c13.125-8.069 14.458-16.050 14.458-19.413 0-4.166-3.412-7.543-7.619-7.543s-7.619 4.571-7.619 4.571-3.412-4.571-7.619-4.571z"></path>
</symbol>
<symbol id="icon-home" viewBox="0 0 32 32">
<path fill="#4440f6" style="fill: var(--color1, #4440f6)" d="M32 16c0 8.837-7.163 16-16 16s-16-7.163-16-16c0-8.837 7.163-16 16-16s16 7.163 16 16z"></path>
<path fill="none" stroke="#f4f4f4" style="stroke: var(--color3, #f4f4f4)" stroke-linejoin="round" stroke-linecap="round" stroke-miterlimit="4" stroke-width="1" d="M9.25 13.75l6.75-5.25 6.75 5.25v8.25c0 0.398-0.158 0.779-0.439 1.061s-0.663 0.439-1.061 0.439h-10.5c-0.398 0-0.779-0.158-1.061-0.439s-0.439-0.663-0.439-1.061v-8.25z"></path>
<path fill="none" stroke="#f4f4f4" style="stroke: var(--color3, #f4f4f4)" stroke-linejoin="round" stroke-linecap="round" stroke-miterlimit="4" stroke-width="1" d="M13.75 23.5v-7.5h4.5v7.5"></path>
</symbol>
<symbol id="icon-moon" viewBox="0 0 32 32">
<path fill="none" stroke-linejoin="round" stroke-linecap="round" stroke-miterlimit="4" stroke-width="2.2857" d="M28 17.053c-0.21 2.27-1.061 4.433-2.456 6.236s-3.273 3.172-5.417 3.946c-2.144 0.774-4.464 0.922-6.688 0.426s-4.262-1.615-5.874-3.227c-1.612-1.612-2.731-3.649-3.227-5.874s-0.348-4.544 0.426-6.688 2.143-4.023 3.946-5.417c1.803-1.394 3.966-2.246 6.236-2.456-1.329 1.798-1.968 4.013-1.802 6.242s1.127 4.325 2.708 5.906c1.581 1.581 3.676 2.542 5.906 2.708s4.444-0.473 6.242-1.802v0z"></path>
</symbol>
<symbol id="icon-read" viewBox="0 0 32 32">
<path fill="#4440f6" style="fill: var(--color1, #4440f6)" d="M32 16c0 8.837-7.163 16-16 16s-16-7.163-16-16c0-8.837 7.163-16 16-16s16 7.163 16 16z"></path>
<path fill="none" stroke="#f4f4f4" style="stroke: var(--color3, #f4f4f4)" stroke-linejoin="round" stroke-linecap="round" stroke-miterlimit="4" stroke-width="1" d="M8.5 9.25h4.5c0.796 0 1.559 0.316 2.121 0.879s0.879 1.326 0.879 2.121v10.5c0-0.597-0.237-1.169-0.659-1.591s-0.994-0.659-1.591-0.659h-5.25v-11.25z"></path>
<path fill="none" stroke="#f4f4f4" style="stroke: var(--color3, #f4f4f4)" stroke-linejoin="round" stroke-linecap="round" stroke-miterlimit="4" stroke-width="1" d="M23.5 9.25h-4.5c-0.796 0-1.559 0.316-2.121 0.879s-0.879 1.326-0.879 2.121v10.5c0-0.597 0.237-1.169 0.659-1.591s0.994-0.659 1.591-0.659h5.25v-11.25z"></path>
</symbol>
<symbol id="icon-search" viewBox="0 0 34 32">
<path d="M14.667 26.5c2.958-0.001 5.831-0.941 8.162-2.673l7.327 6.96 2.357-2.239-7.327-6.96c1.823-2.214 2.814-4.944 2.815-7.755 0-6.984-5.982-12.667-13.333-12.667s-13.333 5.683-13.333 12.667c0 6.984 5.982 12.667 13.333 12.667zM14.667 4.333c5.515 0 10 4.261 10 9.5s-4.485 9.5-10 9.5c-5.515 0-10-4.261-10-9.5s4.485-9.5 10-9.5z"></path>
</symbol>
<symbol id="icon-sun" viewBox="0 0 32 32">
<path fill="none" stroke-linejoin="round" stroke-linecap="round" stroke-miterlimit="4" stroke-width="2.2857" d="M16 1.778v2.586M16 27.636v2.586M5.941 5.941l1.836 1.836M24.223 24.223l1.836 1.836M1.778 16h2.586M27.636 16h2.586M5.941 26.059l1.836-1.836M24.223 7.777l1.836-1.836M22.465 16c0 3.57-2.894 6.465-6.465 6.465s-6.465-2.894-6.465-6.465c0-3.57 2.894-6.465 6.465-6.465s6.465 2.894 6.465 6.465z"></path>
</symbol>
<symbol id="icon-toggle" viewBox="0 0 64 32">
<path fill="#fff" style="fill: var(--color6, #fff)" d="M16 0.484h32c8.569 0 15.516 6.947 15.516 15.516s-6.947 15.516-15.516 15.516h-32c-8.569 0-15.516-6.947-15.516-15.516s6.947-15.516 15.516-15.516z"></path>
<path fill="#4b48db" style="fill: var(--color5, #4b48db)" d="M27.2 16c0 7.069-5.731 12.8-12.8 12.8s-12.8-5.731-12.8-12.8c0-7.069 5.731-12.8 12.8-12.8s12.8 5.731 12.8 12.8z"></path>
<path fill="none" stroke="#4b48db" style="stroke: var(--color5, #4b48db)" stroke-linejoin="miter" stroke-linecap="butt" stroke-miterlimit="4" stroke-width="0.9675" d="M16 0.484h32c8.569 0 15.516 6.947 15.516 15.516s-6.947 15.516-15.516 15.516h-32c-8.569 0-15.516-6.947-15.516-15.516s6.947-15.516 15.516-15.516z"></path>
</symbol>
<symbol id="icon-menu" viewBox="0 0 32 32">
<path stroke-linejoin="round" stroke-linecap="round" stroke-miterlimit="4" stroke-width="2.6667" d="M4 16h24"></path>
<path stroke-linejoin="round" stroke-linecap="round" stroke-miterlimit="4" stroke-width="2.6667" d="M4 8h24"></path>
<path stroke-linejoin="round" stroke-linecap="round" stroke-miterlimit="4" stroke-width="2.6667" d="M4 24h24"></path>
</symbol>
</defs>
</svg>
