<svg width="20" height="20" viewBox="0 0 20 20" fill="none" xmlns="http://www.w3.org/2000/svg">
<g clip-path="url(#clip0_262_182)">
<path d="M14.1666 2.49992H17.5C17.721 2.49992 17.9329 2.58772 18.0892 2.744C18.2455 2.90028 18.3333 3.11224 18.3333 3.33325V16.6666C18.3333 16.8876 18.2455 17.0996 18.0892 17.2558C17.9329 17.4121 17.721 17.4999 17.5 17.4999H2.49996C2.27895 17.4999 2.06698 17.4121 1.9107 17.2558C1.75442 17.0996 1.66663 16.8876 1.66663 16.6666V3.33325C1.66663 3.11224 1.75442 2.90028 1.9107 2.744C2.06698 2.58772 2.27895 2.49992 2.49996 2.49992H5.83329V0.833252H7.49996V2.49992H12.5V0.833252H14.1666V2.49992ZM16.6666 9.16658H3.33329V15.8333H16.6666V9.16658ZM12.5 4.16659H7.49996V5.83325H5.83329V4.16659H3.33329V7.49992H16.6666V4.16659H14.1666V5.83325H12.5V4.16659ZM4.99996 10.8333H6.66663V12.4999H4.99996V10.8333ZM9.16663 10.8333H10.8333V12.4999H9.16663V10.8333ZM13.3333 10.8333H15V12.4999H13.3333V10.8333Z" fill="#4440F7"/>
</g>
<defs>
<clipPath id="clip0_262_182">
<rect width="20" height="20" fill="white"/>
</clipPath>
</defs>
</svg>
