<svg width="32" height="32" viewBox="0 0 32 32" fill="none" xmlns="http://www.w3.org/2000/svg">
<circle cx="16" cy="16" r="16" fill="#4440F6"/>
<path d="M22.6301 10.4574C22.247 10.0742 21.7922 9.77014 21.2916 9.56272C20.791 9.3553 20.2545 9.24854 19.7126 9.24854C19.1707 9.24854 18.6342 9.3553 18.1336 9.56272C17.633 9.77014 17.1782 10.0742 16.7951 10.4574L16.0001 11.2524L15.2051 10.4574C14.4313 9.68364 13.3819 9.24894 12.2876 9.24894C11.1933 9.24894 10.1439 9.68364 9.37009 10.4574C8.59632 11.2312 8.16162 12.2806 8.16162 13.3749C8.16162 14.4692 8.59632 15.5186 9.37009 16.2924L10.1651 17.0874L16.0001 22.9224L21.8351 17.0874L22.6301 16.2924C23.0133 15.9093 23.3174 15.4545 23.5248 14.9539C23.7322 14.4533 23.839 13.9168 23.839 13.3749C23.839 12.833 23.7322 12.2965 23.5248 11.7959C23.3174 11.2953 23.0133 10.8405 22.6301 10.4574V10.4574Z" stroke="#F4F4F4" stroke-linecap="round" stroke-linejoin="round"/>
</svg>
