<svg width="21" height="21" viewBox="0 0 21 21" fill="none" xmlns="http://www.w3.org/2000/svg">
<path d="M18.375 11.1912C18.2374 12.6807 17.6784 14.1001 16.7635 15.2834C15.8486 16.4668 14.6156 17.3651 13.2088 17.8732C11.802 18.3814 10.2795 18.4784 8.8196 18.1528C7.35968 17.8273 6.02266 17.0927 4.96498 16.0351C3.90731 14.9774 3.17273 13.6404 2.8472 12.1804C2.52168 10.7205 2.61866 9.19807 3.12681 7.79126C3.63496 6.38445 4.53326 5.15145 5.7166 4.23653C6.89993 3.32162 8.31936 2.76264 9.80879 2.625C8.93677 3.80473 8.51715 5.25827 8.62625 6.72124C8.73535 8.18421 9.36591 9.55943 10.4033 10.5968C11.4406 11.6341 12.8158 12.2647 14.2788 12.3738C15.7418 12.4829 17.1953 12.0633 18.375 11.1912V11.1912Z" stroke="#5F6775" stroke-width="1.5" stroke-linecap="round" stroke-linejoin="round"/>
</svg>
