<svg width="17" height="16" viewBox="0 0 17 16" fill="none" xmlns="http://www.w3.org/2000/svg">
<path d="M7.33329 13.2499C8.81244 13.2496 10.249 12.7792 11.4141 11.9136L15.0775 15.3938L16.2558 14.2743L12.5925 10.7942C13.5041 9.68715 13.9996 8.32214 14 6.91658C14 3.42454 11.0091 0.583252 7.33329 0.583252C3.65746 0.583252 0.666626 3.42454 0.666626 6.91658C0.666626 10.4086 3.65746 13.2499 7.33329 13.2499ZM7.33329 2.16659C10.0908 2.16659 12.3333 4.29696 12.3333 6.91658C12.3333 9.53621 10.0908 11.6666 7.33329 11.6666C4.57579 11.6666 2.33329 9.53621 2.33329 6.91658C2.33329 4.29696 4.57579 2.16659 7.33329 2.16659Z" fill="#111321"/>
</svg>
